<?xml version="1.0" encoding="UTF-8"?><svg id="Group_203" xmlns="http://www.w3.org/2000/svg" xmlns:xlink="http://www.w3.org/1999/xlink" viewBox="0 0 216 42.8"><defs><style>.cls-1{clip-path:url(#clippath);}.cls-2{fill:none;}.cls-2,.cls-3,.cls-4,.cls-5,.cls-6,.cls-7,.cls-8,.cls-9,.cls-10,.cls-11,.cls-12{stroke-width:0px;}.cls-4{fill:#f9a01b;}.cls-5{fill:#2c2c2c;}.cls-6{fill:#9ab72d;}.cls-7{fill:#377225;}.cls-8{fill:#1a1a1a;}.cls-9{fill:#98b52d;}.cls-10{fill:#00aeee;}.cls-11{fill:#0070b5;}.cls-12{fill:#0083ca;}</style><clipPath id="clippath"><rect class="cls-2" width="216" height="42.8"/></clipPath></defs><g class="cls-1"><g id="Group_202"><path id="Path_178" class="cls-3" d="m42.6,17.84c-.31-1.88-.87-3.7-1.66-5.44-2.44-5.28-6.94-9.34-12.44-11.24C26.53.49,24.48.11,22.4.02c-1.64-.08-3.29.03-4.9.33-1.77.33-3.49.87-5.12,1.62-1.99.9-3.8,2.13-5.38,3.64-.94.91-1.82,1.87-2.64,2.89-1.25,1.6-2.25,3.38-2.96,5.29-.64,1.62-1.05,3.32-1.22,5.05-.04.46-.12.91-.18,1.36v2.4c.04.07.07.14.09.22.06,1.57.33,3.13.8,4.64.8,2.75,2.15,5.31,3.98,7.51,1.9,2.34,4.28,4.24,6.98,5.58,1.22.61,2.5,1.1,3.81,1.48,1.3.37,2.63.61,3.97.7.05,0,.09.05.14.08h3.3c.5-.06,1-.12,1.5-.19,2.62-.4,5.15-1.27,7.46-2.57,2.29-1.29,4.33-2.99,6-5.02,1.78-2.14,3.11-4.62,3.93-7.28.5-1.56.8-3.17.88-4.8.1-1.7.02-3.41-.23-5.1M1.62,26.43c.17.11.34.23.5.36,1.45,1.33,2.88,2.71,4.38,3.98,1.39,1.24,3.08,2.09,4.9,2.46.44.08.9.13,1.35.19l.16-.03.46.02h.97l.46-.02h.19c.38-.02.75-.02,1.13-.03,2-.13,4.01.12,5.93.72,2.14.8,4.09,2.04,5.73,3.63.77.72,1.45,1.51,2.16,2.26-9.1,4.74-24.28.89-28.32-13.54m34.24,9.54c-1.45,1.43-3.1,2.64-4.9,3.58-.22.17-.53.12-.7-.1,0,0,0-.01-.01-.02-1.59-1.76-3.42-3.3-5.42-4.58-1.5-.93-3.18-1.55-4.93-1.81-.99-.1-1.98-.14-2.97-.11-.96,0-1.92.06-2.88.08-2.62.08-5.17-.84-7.14-2.56-1.52-1.3-2.97-2.69-4.45-4.03-.3-.27-.61-.54-.97-.87,3.4.25,6.3,1.65,9.18,3.12,1.52.9,3.17,1.56,4.89,1.96.81.15,1.65.1,2.44-.12,1.38-.39,2.75-.83,4.15-1.13,2.76-.59,5.63-.19,8.13,1.13,1.56.79,3.06,1.7,4.6,2.51.82.43,1.69.78,2.62,1.2-.55.59-1.07,1.19-1.63,1.75m2.14-2.46c-.16.23-.31.2-.52.12-1.5-.57-2.94-1.29-4.29-2.14-1.98-1.3-4.18-2.21-6.49-2.7-1.91-.31-3.86-.2-5.72.33-1.02.27-2.04.53-3.03.88-.78.25-1.6.29-2.4.12-1.6-.38-3.13-.99-4.54-1.84-2.05-1.14-4.22-2.05-6.47-2.71-1.04-.27-2.11-.41-3.36-.72.1-.01.21-.02.31-.04,1.82-.29,3.66-.33,5.49-.14,2.2.41,4.33,1.13,6.32,2.14,1.2.58,2.51.91,3.84.95,1.24-.1,2.46-.41,3.59-.92,1.13-.48,2.3-.86,3.5-1.12,2.14-.37,4.33-.06,6.29.88,1.23.58,2.47,1.15,3.74,1.65,1.26.52,2.6.83,3.96.92l.25.02.2.02h.17s1.17,0,1.17,0l.37.02c-.62,1.51-1.42,2.94-2.39,4.25m3.85-9.89c-.28,1.48-.62,2.94-.99,4.4-.2.79-.28.86-1.12.79-1.28-.1-2.55-.28-3.81-.54-1.81-.51-3.57-1.21-5.23-2.1-2.97-1.42-6.42-1.46-9.42-.1-.8.34-1.62.66-2.44.95-1.5.46-3.12.34-4.54-.32-1.64-.64-3.24-1.39-4.9-1.97-1.76-.59-3.62-.81-5.47-.63-.74.06-1.47.1-2.31.16l1.31-1.42c.14.11.24.2.34.27.2.2.51.22.73.05.16-.07.34-.05.48.04.61.48.74.46,1.26-.13.44-.49.93-.93,1.44-1.44.02.06.04.13.05.19,0,.79,0,.8.79.78.29-.03.56.14.66.41.11.24.23.48.37.71.25.41.5.4.76,0,.4-.61.81-1.22,1.25-1.88l-.31-.27-1.28,1.59-.84-.96h-.98c.04-.3.07-.53.11-.86l.9.83c.62.25,1.33-.03,1.61-.64.24-.35.54-.65.87-1.04.12.3.19.5.27.7.15.4.28.81.46,1.2.26.57.69.64,1.1.16.28-.34.53-.71.74-1.1.61-1.2,1.38-2.31,2.3-3.3.37-.36.82-.64,1.18-1.01.91-.91,1.8-1.84,2.7-2.76.14-.15.26-.32.39-.48l.13.08c-.07.44-.14.88-.21,1.32-.04.26-.09.52-.13.79-.07.45.28.6.59.63.52.04.62.31.56.74-.13.4.08.84.49.97.05.02.11.03.16.04.2.09.34.26.41.47.2.72.71,1.32,1.38,1.65.32.21.58.5.76.83.26.37.47.79.7,1.18.14.23.31.46.59.31.13-.07.19-.32.21-.5.16-1.33.31-2.67.47-4,.01-.12.08-.22.17-.29.65-.37,1.32-.73,2.08-1.15-.13.47-.24.83-.34,1.19-.14.55-.08.73.43.96.34.19.56.55.57.94.13.65.25,1.31.34,1.96.03.23.09.45.35.41.18-.06.33-.19.41-.37.44-.85.85-1.71,1.31-2.63.22.19.35.32.49.42s.31.26.45.25c.91-.05,1.59.64,2.48.73.86.09,1.71.35,2.57.5,1.4.24,2.79.45,4.17.67.05.55.04,1.1-.02,1.65m-30.22-3.3l.07-.08c.15.15.31.3.46.45.41.43.6.43,1.02.01.18-.19.39-.35.61-.49-.47.67-.63,1.53-1.36,2.14l-.8-2.04m9.16-4.76c.13-.81.31-1.6.54-2.39.14.21.4.42.4.63,0,.96.37,1.56,1.41,1.59.06.45.28.85.62,1.14.19.3.33.63.39.98.04.12.01.26.05.39.31,1.01.4,1.05,1.44.71-.12.95-.24,1.9-.36,2.85-.38-.72-.98-1.3-1.72-1.65-.24-.2-.41-.46-.48-.76-.14-.52-.51-.95-1.02-1.15-.13-.09-.21-.24-.22-.4-.04-.89-.03-.89-.87-1.23-.34-.14-.23-.47-.19-.7m8.14,2.66c.16-.4.28-.81.41-1.21l.19-.15c.05.14.11.28.18.42.34.51.92.8,1.52.77.51,0,.98.3,1.19.77.09.15.18.31.26.46l.05.11s0,.06.01.09l-.05-.06-.11-.07c-.18-.13-.35-.27-.53-.4-.39-.28-.62-.24-.87.18-.34.57-.67,1.15-1.05,1.8-.12-.4-.21-.8-.27-1.21-.04-.47-.34-.87-.78-1.04-.22-.11-.26-.21-.17-.44m10.67,2.93c-1.24-.2-2.47-.46-3.71-.68-1.18-.08-2.24-.75-2.8-1.79-.31-.79-1.12-1.28-1.96-1.17-.25.02-.55-.24-.78-.42-.24-.2-.45-.43-.64-.68-.25-.33-.73-.4-1.06-.15,0,0,0,0,0,0-1.07.58-2.14,1.14-3.22,1.71-.13.07-.26.12-.44.2-.1-.48-.19-.91-.28-1.35-.01-.06,0-.13-.03-.17-.42-.42-.73-.94-.92-1.5-.03-.13-.39-.22-.62-.27-.58-.13-.65-.2-.67-.79-.1-.71-.56-1.31-1.22-1.6-.25-.04-.51.03-.7.19-1.53,1.8-3.2,3.47-4.99,5-.56.46-1.04,1.01-1.57,1.5-.42.39-.85.76-1.36,1.21l-.28-.4c-.2-.41-.7-.58-1.11-.37-.1.05-.19.12-.26.21-.46.46-.89.95-1.3,1.46-.43.51-.46.52-.97.08-.2-.17-.4-.35-.6-.53-.22-.25-.6-.28-.85-.06-.02.02-.04.04-.06.06-.36.33-.72.66-1.09.99s-.7.64-1.08,1c-.25-.41-.79-.54-1.2-.28-.01,0-.03.02-.04.03-.07.04-.24-.05-.33-.12-.25-.26-.66-.26-.92-.01-.01.01-.02.02-.03.04-.47.4-.95.77-1.42,1.16v-.91s0-2.7,0-2.7c0-.02-.01-.03-.01-.05,0,0,.01-.01.02-.02.07-1.8.43-3.59,1.07-5.28,1.94-5.61,6.23-10.1,11.75-12.27,1.76-.76,3.63-1.2,5.54-1.32.31-.01.61-.06.92-.1l.02-.03h.03s1.73-.01,1.73-.01c0-.01.03-.02.04-.01,0,0,0,0,.01.01,1.57.07,3.13.31,4.66.71,6,1.56,10.95,5.8,13.4,11.49.77,1.63,1.27,3.38,1.48,5.18.1,1,.2,2,.32,3.11-.87-.1-1.66-.15-2.43-.28"/><path id="Path_179" class="cls-3" d="m57.85,26.44v8.56h-2.96v-13.76c.88,0,1.75,0,2.62,0,.09,0,.19.1.25.18.94,1.21,1.87,2.42,2.8,3.63,1.16,1.51,2.32,3.02,3.47,4.53l.06.05.02-.1v-8.27h2.96v13.77c-.81,0-1.62,0-2.43,0-.1-.02-.18-.07-.24-.15-1.62-2.12-3.23-4.24-4.85-6.37-.54-.71-1.08-1.41-1.62-2.11l-.06-.05-.02.1"/><path id="Path_180" class="cls-3" d="m207.14,30.7v4.3h-3.02v-13.71s.04-.04.06-.04c2.25,0,4.51-.02,6.76.04,1.2-.03,2.36.39,3.27,1.17.79.7,1.26,1.7,1.3,2.75.12.99-.04,1.99-.47,2.89-.48.86-1.25,1.53-2.16,1.89-.08.03-.15.07-.25.12l3.36,4.92c-1.17,0-2.28.01-3.38-.01-.13,0-.3-.17-.39-.3-.84-1.25-1.68-2.5-2.5-3.76-.13-.25-.39-.39-.67-.35-.61.03-1.22.02-1.82.02l-.09.07m0-6.67v3.86s.07.04.1.04c1.02,0,2.05.03,3.07-.01.44-.03.87-.15,1.27-.34.92-.59,1.19-1.81.61-2.73,0-.01-.02-.03-.03-.04-.37-.48-.93-.76-1.54-.76-1.14-.05-2.28-.01-3.48-.01"/><path id="Path_181" class="cls-3" d="m128.03,23.92h-7.25v2.77h6.44v2.74h-6.45v2.87h7.44v2.71h-10.44v-13.75h10.36v2.59l-.09.07"/><path id="Path_182" class="cls-3" d="m134.97,21.26c2.09,0,4.18-.05,6.27.02,1.21.02,2.37.51,3.23,1.35.82.78,1.28,1.86,1.27,2.99.04.68-.02,1.37-.2,2.03-.3.95-.94,1.76-1.79,2.29-.93.6-2.01.92-3.12.93-.89.02-1.77,0-2.7,0v4.13h-2.99s-.05-.07-.05-.09v-13.56l.07-.1m2.98,6.92c.9,0,1.76.05,2.61-.01.9.03,1.71-.52,2.02-1.37.43-.96,0-2.09-.95-2.53-.17-.08-.35-.13-.53-.15-.79-.06-1.58-.1-2.38-.14-.26-.01-.52,0-.79,0v3.99c0,.06.01.11.02.22"/><path id="Path_183" class="cls-3" d="m150.96,33.12l1.86-2.22c.85.68,1.82,1.2,2.86,1.52.77.21,1.59.2,2.35-.03.52-.12.89-.57.92-1.11.06-.5-.25-.97-.73-1.11-.93-.31-1.88-.58-2.81-.9-.61-.2-1.2-.43-1.78-.7-1.14-.48-1.91-1.55-2.01-2.78-.19-1.23.21-2.49,1.08-3.38.74-.78,1.75-1.24,2.83-1.3,1.27-.15,2.55,0,3.75.44.78.32,1.53.74,2.34,1.15l-1.58,2.29c-.82-.36-1.58-.76-2.39-1.03-.78-.32-1.66-.31-2.43.03-.53.22-.78.84-.56,1.37.08.18.2.33.36.44.59.35,1.23.62,1.89.79,1.16.26,2.27.66,3.33,1.19.94.51,1.57,1.45,1.66,2.52.15,1.02-.05,2.06-.58,2.95-.64.96-1.64,1.61-2.78,1.79-1.7.41-3.48.23-5.06-.51-.85-.39-1.63-.92-2.52-1.43"/><path id="Path_184" class="cls-3" d="m83.93,22.76c-.46.68-.9,1.28-1.29,1.91-.19.31-.34.37-.68.17-.6-.4-1.26-.71-1.95-.92-.73-.13-1.47-.15-2.2-.06-.46.12-.8.52-.84.99-.09.5.22.99.71,1.13,1.14.42,2.31.77,3.46,1.14,1.08.25,2.03.89,2.65,1.81.26.48.41,1,.46,1.54.12.83,0,1.67-.37,2.42-.5.97-1.37,1.68-2.41,1.98-1.38.44-2.86.48-4.26.13-1.41-.35-2.73-1.03-3.83-1.98l1.74-2.07c.81.44,1.55.91,2.35,1.25.89.43,1.91.49,2.85.17.77-.28,1.14-.63.89-1.57-.16-.34-.45-.6-.8-.72-1.04-.38-2.12-.63-3.16-1.01-.73-.29-1.44-.64-2.11-1.06-.6-.4-1-1.04-1.1-1.76-.41-1.51.1-3.11,1.29-4.12.69-.61,1.56-.97,2.48-1.04,1.73-.2,3.48.13,5.02.96.36.21.71.45,1.08.69"/><path id="Path_185" class="cls-3" d="m178.71,30.9l1.96,1.89c-.77.9-1.76,1.59-2.87,2.01-1.51.57-3.16.65-4.73.24-2.02-.52-3.7-1.95-4.53-3.86-.53-1.2-.74-2.53-.6-3.84.13-1.35.65-2.63,1.49-3.69.92-1.2,2.22-2.05,3.69-2.4.78-.13,1.58-.18,2.37-.15,1.63-.08,3.23.46,4.49,1.51.19.15.36.34.56.52-.57.67-1.11,1.3-1.65,1.94-.18.21-.29.28-.56.06-1.28-1.24-3.16-1.63-4.82-.98-.81.34-1.47.96-1.86,1.74-1.05,1.87-.66,4.22.94,5.66.81.78,1.96,1.1,3.06.86,1.15-.17,2.22-.69,3.06-1.5"/><path id="Path_186" class="cls-3" d="m100.54,29.69h-6.57v5.32h-3.02v-13.76h10.45v2.73h-7.4v2.95h6.54v2.76Z"/><path id="Path_187" class="cls-3" d="m191.82,35.25c-2.2.09-4.23-1.18-5.14-3.19-.9-1.89-.62-4.13.73-5.72,1.22-1.53,3.16-2.3,5.1-2.03,1.97.08,3.74,1.25,4.59,3.03.56,1.18.68,2.51.35,3.77-.33,1.44-1.26,2.66-2.55,3.37-.93.56-2,.83-3.08.76m.05-2.59c1.45.09,2.7-1.01,2.8-2.46,0-.08,0-.16,0-.24.16-1.54-.95-2.92-2.49-3.08-.04,0-.08,0-.12,0-1.51-.1-2.81,1.04-2.91,2.55,0,.05,0,.1,0,.15-.14,1.57,1.02,2.95,2.58,3.09.05,0,.09,0,.14,0"/><path id="Path_188" class="cls-3" d="m54.36,9.97v-.49h49.05v.58h-48.62c-.12,0-.24-.01-.35-.01l-.07-.07"/><path id="Path_189" class="cls-3" d="m215.34,10.05c-.15,0-.3.01-.44.01h-48.43v-.58h48.95v.49l-.08.08"/><path id="Path_190" class="cls-3" d="m108.41,7.43v4.91h-.75v-6.26c.7-.17.81-.11,1.19.58.69,1.25,1.38,2.5,2.1,3.78.73-1.32,1.45-2.61,2.17-3.9.33-.58.34-.57,1.11-.5v6.3h-.73v-4.87l-.08-.02c-.27.49-.55.97-.82,1.46-.39.72-.78,1.43-1.16,2.16-.07.21-.28.35-.5.35-.29,0-.38-.15-.48-.35-.65-1.2-1.3-2.39-1.96-3.58l-.1-.05"/><path id="Path_191" class="cls-3" d="m120.39,12.41c-1.96-.02-3.11-1.51-3.1-3.21-.05-1.65,1.16-3.06,2.8-3.25,1.65-.25,3.18.88,3.44,2.52.02.16.04.32.03.49.11,1.75-.89,3.14-2.51,3.38-.22.03-.52.06-.66.06m-.12-.75h.04c.58-.05,1-.2,1.47-.43.68-.5.94-1.33.93-2.18-.09-1.96-1.35-2.56-3.12-2.19-.18.04-.35.12-.49.24-.8.64-1.15,1.7-.9,2.69.12,1.05,1,1.85,2.06,1.88"/><path id="Path_192" class="cls-3" d="m130.94,10.76v-4.68h.75v3.46c0,.78,0,1.57,0,2.35-.03.16-.07.32-.14.47-.21-.07-.49-.07-.61-.21-.52-.61-.99-1.25-1.48-1.89l-2.14-2.76v4.82h-.76v-6.25c.31-.02.58-.1.85.26,1.05,1.42,2.14,2.8,3.21,4.2.08.09.16.17.24.25l.08.07v-.1Z"/><path id="Path_193" class="cls-3" d="m153.66,10.76v-4.77l.71.08s-.03.02-.02.03c.01.02.03.04.04.06,0,1.96.01,3.91,0,5.87,0,.11-.08.33-.13.33-.19,0-.45,0-.56-.11-.38-.4-.71-.85-1.05-1.29-.86-1.12-1.71-2.25-2.64-3.47v4.86h-.77v-6.19l.08-.08c.79-.2.96.52,1.3.93,1.01,1.24,1.98,2.52,2.96,3.79l.05.05.02-.09"/><path id="Path_194" class="cls-3" d="m162.85,12.34c-.76.11-.84.06-1.14-.76q-.36-.97-1.39-.97c-.5,0-1.01-.02-1.51.01-.16.03-.3.12-.38.26-.14.27-.26.55-.36.84-.29.71-.3.72-1.1.62.48-1.19.95-2.36,1.42-3.54.33-.82.66-1.65,1.01-2.46.07-.14.2-.24.35-.27.27,0,.63-.16.78.22.79,1.98,1.57,3.97,2.35,5.96,0,.02,0,.06-.01.09m-4.08-2.36h2.33l-1.17-3.04-1.17,3.04"/><path id="Path_195" class="cls-3" d="m140.72,12.27c.76-1.93,1.52-3.86,2.29-5.78.09-.23.17-.48.55-.44.33.03.58-.01.74.43.63,1.72,1.33,3.41,2.01,5.12.09.24.21.46.33.7-.76.17-.81.15-1.06-.47-.16-.4-.33-.8-.5-1.22-.85,0-1.71-.01-2.57.01-.16.04-.29.14-.36.29-.17.33-.3.69-.44,1.03-.19.46-.49.56-.98.33m2.94-5.35l-1.16,3.05h2.33l-1.17-3.05"/><path id="Path_196" class="cls-3" d="m136.44,6.78h-2.05v-.76h4.93v.65h-2.02v5.66h-.86v-5.54Z"/><path id="Path_197" class="cls-3" d="m128.03,23.92l.09-.07-.09.07"/><path id="Path_198" class="cls-3" d="m153.66,10.76l-.02.09-.05-.05.07-.04"/><path id="Path_199" class="cls-3" d="m57.85,26.44l.02-.1.06.05-.09.05"/><path id="Path_200" class="cls-3" d="m130.94,10.76v.1l-.08-.07.08-.04"/><path id="Path_201" class="cls-3" d="m215.34,10.05l.08-.08-.08.08"/><path id="Path_202" class="cls-3" d="m154.38,6.15s-.03-.04-.04-.06c0,0,.02-.02.02-.03,0,.02.02.04.02.06,0,0,0,.02,0,.03"/><path id="Path_203" class="cls-3" d="m149.32,6.07l-.08.08.08-.08"/><path id="Path_204" class="cls-3" d="m64.12,29.53l-.02.1-.07-.05.09-.05"/><path id="Path_205" class="cls-3" d="m207.14,30.69l.09-.07-.09.07"/><path id="Path_206" class="cls-3" d="m54.36,9.97l.07.07-.07-.07"/><path id="Path_207" class="cls-3" d="m108.41,7.43l.1.05-.1-.05"/><path id="Path_208" class="cls-3" d="m134.97,21.26l-.07.1.07-.1"/><path id="Path_209" class="cls-4" d="m22.17.94c1.57.07,3.13.31,4.66.71,6,1.56,10.94,5.8,13.4,11.49.77,1.63,1.27,3.38,1.48,5.17.1,1,.2,2,.32,3.11-.87-.1-1.66-.15-2.43-.28-1.24-.2-2.47-.46-3.71-.68-1.18-.08-2.24-.75-2.8-1.79-.31-.79-1.12-1.27-1.96-1.17-.25.02-.55-.24-.78-.42-.24-.2-.45-.43-.64-.68-.25-.33-.73-.4-1.06-.15,0,0,0,0,0,0-1.07.58-2.14,1.14-3.22,1.71-.13.07-.26.12-.44.2-.1-.48-.19-.91-.28-1.35-.01-.06,0-.13-.03-.17-.42-.42-.73-.94-.92-1.5-.03-.13-.39-.22-.62-.27-.58-.13-.65-.2-.67-.79-.1-.71-.56-1.31-1.22-1.6-.25-.04-.51.03-.7.19-1.53,1.8-3.2,3.47-4.99,5-.56.46-1.04,1.01-1.57,1.5-.42.39-.85.76-1.36,1.21l-.3-.41c-.2-.41-.7-.58-1.11-.37-.1.05-.19.12-.26.21-.46.46-.89.95-1.3,1.46-.43.51-.46.52-.97.08-.2-.17-.4-.35-.6-.53-.22-.25-.6-.28-.85-.06-.02.02-.04.04-.06.06-.36.33-.73.66-1.09.99s-.7.65-1.08,1c-.25-.41-.79-.54-1.2-.28-.01,0-.03.02-.04.03-.07.04-.24-.05-.33-.12-.25-.26-.66-.26-.92-.01-.01.01-.02.02-.03.04-.49.41-.98.81-1.48,1.21l.06.16v-1.11s0-2.7,0-2.7c.02-.02.02-.05,0-.07.07-1.8.43-3.59,1.07-5.28,1.94-5.61,6.23-10.1,11.75-12.28,1.76-.76,3.63-1.2,5.54-1.32.31-.02.61-.07.92-.1h.03l.02-.02,1.73-.02.02.03.03-.02Z"/><path id="Path_210" class="cls-7" d="m8.66,22.14c.62.25,1.33-.03,1.61-.63.24-.35.54-.65.87-1.04.12.3.2.5.27.7.15.4.28.81.46,1.2.26.57.69.64,1.1.16.28-.34.53-.71.74-1.1.61-1.2,1.38-2.31,2.3-3.3.37-.36.82-.64,1.18-1.01.91-.91,1.8-1.84,2.7-2.76.14-.15.26-.32.39-.47l.13.08c-.07.44-.14.88-.21,1.32-.04.26-.09.52-.13.78-.07.46.28.6.59.63.52.04.62.31.56.74-.13.4.08.84.49.97.05.02.11.03.16.04.2.09.34.26.41.47.2.72.71,1.32,1.38,1.65.32.21.58.5.76.83.26.37.47.79.7,1.18.14.23.31.46.59.31.13-.07.19-.32.21-.5.16-1.33.31-2.67.47-4,.01-.12.08-.22.17-.29.65-.37,1.32-.73,2.08-1.15-.13.47-.24.83-.34,1.19-.14.55-.08.72.43.96.34.19.56.55.57.94.13.65.25,1.31.34,1.96.03.23.1.45.35.41.18-.06.33-.19.41-.37.44-.85.85-1.71,1.31-2.63.22.19.35.32.49.42s.31.26.45.25c.91-.04,1.59.64,2.47.73.86.09,1.71.35,2.57.5,1.39.24,2.79.45,4.17.67.05.55.04,1.1-.02,1.65-.28,1.48-.62,2.94-.99,4.4-.2.78-.28.87-1.12.79-1.28-.1-2.55-.28-3.81-.54-1.81-.51-3.57-1.21-5.23-2.1-2.97-1.43-6.42-1.46-9.42-.1-.8.34-1.62.66-2.44.95-1.5.46-3.12.34-4.54-.32-1.64-.64-3.24-1.39-4.9-1.97-1.76-.59-3.62-.81-5.47-.63-.74.06-1.47.1-2.31.16l1.31-1.42c.14.11.24.2.34.27.2.2.51.22.73.05.16-.07.34-.05.48.04.61.48.74.46,1.26-.13.44-.49.93-.94,1.44-1.44.02.06.04.13.05.19,0,.79,0,.8.79.78.29-.03.56.14.66.41.11.24.23.48.37.71.25.4.5.4.76,0,.4-.61.81-1.22,1.25-1.88l-.31-.27-1.29,1.58-.84-.96.03-.04"/><path id="Path_211" class="cls-10" d="m14.34,33.42l.46-.02h.19c.38-.02.75-.02,1.13-.04,2-.13,4.01.12,5.93.72,2.14.8,4.09,2.04,5.73,3.63.77.72,1.45,1.51,2.16,2.26-9.1,4.74-24.28.89-28.32-13.54.17.11.34.23.5.36,1.46,1.33,2.88,2.7,4.38,3.97,1.39,1.24,3.08,2.09,4.9,2.46.44.08.9.13,1.35.19l.16-.03.46.02h.04s.04,0,.04,0h.89"/><path id="Path_212" class="cls-12" d="m1.46,25.55c3.4.25,6.3,1.65,9.18,3.12,1.52.9,3.17,1.56,4.89,1.96.81.15,1.65.1,2.44-.12,1.38-.39,2.75-.83,4.15-1.13,2.76-.59,5.63-.19,8.13,1.13,1.56.79,3.06,1.7,4.6,2.51.82.43,1.69.78,2.62,1.2-.55.59-1.07,1.19-1.63,1.75-1.45,1.43-3.1,2.64-4.9,3.58-.22.17-.53.12-.7-.1,0,0-.01-.01-.01-.02-1.59-1.76-3.42-3.3-5.42-4.58-1.5-.93-3.18-1.55-4.94-1.81-.99-.1-1.98-.14-2.97-.11-.96,0-1.92.06-2.88.08-2.62.08-5.17-.84-7.14-2.56-1.52-1.3-2.97-2.69-4.45-4.03-.3-.27-.61-.54-.97-.87"/><path id="Path_213" class="cls-11" d="m40.38,29.27c-.62,1.51-1.42,2.94-2.39,4.25-.16.23-.31.2-.52.12-1.5-.57-2.94-1.28-4.29-2.14-1.98-1.3-4.18-2.21-6.49-2.7-1.91-.31-3.86-.2-5.72.33-1.02.27-2.04.54-3.03.88-.78.25-1.6.29-2.4.12-1.6-.38-3.13-.99-4.54-1.84-2.05-1.14-4.21-2.05-6.46-2.71-1.04-.27-2.11-.41-3.36-.72.1-.01.21-.02.31-.04,1.82-.29,3.66-.33,5.49-.14,2.2.41,4.33,1.13,6.32,2.15,1.2.58,2.51.91,3.84.95,1.24-.1,2.46-.41,3.59-.93,1.13-.48,2.3-.86,3.5-1.12,2.14-.37,4.33-.06,6.29.88,1.23.58,2.47,1.15,3.74,1.65,1.26.52,2.6.83,3.96.93l.25.02.2.02h.17s1.17,0,1.17,0l.37.02"/><path id="Path_214" class="cls-6" d="m25.27,21.46c-.38-.72-.98-1.3-1.71-1.65-.24-.19-.41-.46-.48-.76-.14-.52-.51-.95-1.02-1.15-.13-.09-.21-.24-.22-.4-.04-.89-.03-.88-.87-1.23-.34-.14-.23-.47-.19-.7.13-.81.31-1.6.54-2.39.14.21.4.42.4.63,0,.96.37,1.56,1.41,1.59.06.45.28.85.62,1.14.19.3.33.63.39.98.04.12.01.26.05.39.31,1.01.4,1.05,1.44.71-.12.96-.24,1.9-.36,2.85"/><path id="Path_215" class="cls-9" d="m32.59,19.34c-.18-.13-.35-.27-.53-.4-.39-.28-.62-.24-.87.18-.34.57-.67,1.15-1.05,1.8-.12-.4-.21-.8-.27-1.21-.04-.47-.34-.87-.78-1.04-.21-.11-.26-.21-.17-.44.16-.4.28-.81.41-1.21l.19-.15c.05.14.11.28.18.42.34.51.92.8,1.52.77.51,0,.98.3,1.19.77.09.15.18.31.26.46l-.09.07"/><path id="Path_216" class="cls-9" d="m12.41,22.37l-.8-2.04.07-.08c.16.15.32.3.46.45.41.43.6.43,1.02.01.18-.19.39-.35.61-.49-.47.67-.63,1.53-1.37,2.14"/><path id="Path_217" class="cls-7" d="m8.63,22.18h-.98c.04-.3.07-.53.11-.86l.9.83-.03.04"/><path id="Path_218" class="cls-8" d="m40.38,29.27l-.37-.02.37.02"/><path id="Path_219" class="cls-8" d="m38.47,29.22l-.25-.02.25.02"/><path id="Path_220" class="cls-8" d="m38.84,29.25h-.17s.17,0,.17,0"/><path id="Path_221" class="cls-9" d="m1.05,22.72v.13s0-.13,0-.13"/><path id="Path_222" class="cls-5" d="m12.91,33.4l-.16.03.16-.03"/><path id="Path_224" class="cls-5" d="m14.99,33.39h-.19s.19,0,.19,0"/><path id="Path_225" class="cls-9" d="m1.05,19.95s0,.05,0,.07c0-.02-.01-.03-.02-.05,0,0,.01-.01.02-.02"/><path id="Path_226" class="cls-9" d="m32.73,19.38v.09s-.03-.06-.03-.06l.04-.03"/><path id="Path_227" class="cls-9" d="m32.68,19.27l.05.11-.04.02-.11-.07.09-.07"/><path id="Path_228" class="cls-9" d="m22.17.94l-.03.03-.03-.03s.03-.02.04,0c0,0,0,0,0,0"/><path id="Path_229" class="cls-5" d="m13.45,33.43h-.04s-.04,0-.04,0h.08"/><path id="Path_230" class="cls-9" d="m20.38.96l-.02.02h-.03l.02-.03h.03Z"/></g></g></svg>